<svg version="1.1" viewBox="0.0 0.0 1053.742782152231 539.3254593175853" fill="none" stroke="none" stroke-linecap="square" stroke-miterlimit="10"
    xmlns:xlink="http://www.w3.org/1999/xlink"
    xmlns="http://www.w3.org/2000/svg">
    <clipPath id="p.0">
        <path d="m0 0l1053.7428 0l0 539.32544l-1053.7428 0l0 -539.32544z" clip-rule="nonzero"/>
    </clipPath>
    <g clip-path="url(#p.0)">
        <path fill="#000000" fill-opacity="0.0" d="m0 0l1053.7428 0l0 539.32544l-1053.7428 0z" fill-rule="evenodd"/>
        <path fill="#ffffff" d="m380.67584 15.989883l505.60632 0l0 152.12599l-505.60632 0z" fill-rule="evenodd"/>
        <path fill="#ffffff" d="m16.266405 161.56993l1026.3938 0l0 269.13385l-1026.3938 0z" fill-rule="evenodd"/>
        <path fill="#000000" fill-opacity="0.0" d="m16.150919 432.00302l0 -269.13385" fill-rule="evenodd"/>
        <path stroke="#000000" stroke-width="4.0" stroke-linejoin="round" stroke-linecap="butt" d="m16.150919 432.00302l0 -269.13385" fill-rule="evenodd"/>
        <path fill="#000000" fill-opacity="0.0" d="m16.431759 161.49135l364.6614 0" fill-rule="evenodd"/>
        <path stroke="#000000" stroke-width="4.0" stroke-linejoin="round" stroke-linecap="butt" d="m16.431759 161.49135l364.6614 0" fill-rule="evenodd"/>
        <path fill="#000000" fill-opacity="0.0" d="m380.98294 163.066l0 -146.99213" fill-rule="evenodd"/>
        <path stroke="#000000" stroke-width="4.0" stroke-linejoin="round" stroke-linecap="butt" d="m380.98294 163.066l0 -146.99213" fill-rule="evenodd"/>
        <path fill="#000000" fill-opacity="0.0" d="m380.92783 16.126366l505.6063 0" fill-rule="evenodd"/>
        <path stroke="#000000" stroke-width="4.0" stroke-linejoin="round" stroke-linecap="butt" d="m380.92783 16.126366l505.6063 0" fill-rule="evenodd"/>
        <path fill="#000000" fill-opacity="0.0" d="m886.5971 15.989883l0 143.14961" fill-rule="evenodd"/>
        <path stroke="#000000" stroke-width="4.0" stroke-linejoin="round" stroke-linecap="butt" d="m886.5971 15.989883l0 143.14961" fill-rule="evenodd"/>
        <path fill="#000000" fill-opacity="0.0" d="m884.7782 158.5883l158.14172 0" fill-rule="evenodd"/>
        <path stroke="#000000" stroke-width="4.0" stroke-linejoin="round" stroke-linecap="butt" d="m884.7782 158.5883l158.14172 0" fill-rule="evenodd"/>
        <path fill="#000000" fill-opacity="0.0" d="m1042.6654 156.61719l0 274.86612" fill-rule="evenodd"/>
        <path stroke="#000000" stroke-width="4.0" stroke-linejoin="round" stroke-linecap="butt" d="m1042.6654 156.61719l0 274.86612" fill-rule="evenodd"/>
        <path fill="#000000" fill-opacity="0.0" d="m15.961943 431.81665l228.7874 0" fill-rule="evenodd"/>
        <path stroke="#000000" stroke-width="4.0" stroke-linejoin="round" stroke-linecap="butt" d="m15.961943 431.81665l228.7874 0" fill-rule="evenodd"/>
        <path fill="#000000" fill-opacity="0.0" d="m424.5735 431.5647l619.18115 0" fill-rule="evenodd"/>
        <path stroke="#000000" stroke-width="4.0" stroke-linejoin="round" stroke-linecap="butt" d="m424.5735 431.5647l619.18115 0" fill-rule="evenodd"/>
        <path fill="#ffffff" d="m244.74934 346.47806l221.6378 0l0 182.64566l-221.6378 0z" fill-rule="evenodd"/>
        <path fill="#b7b7b7" d="m320.09842 389.48593l18.48819 0l0 96.629944l-18.48819 0z" fill-rule="evenodd"/>
        <path stroke="#000000" stroke-width="1.0" stroke-linejoin="round" stroke-linecap="butt" d="m320.09842 389.48593l18.48819 0l0 96.629944l-18.48819 0z" fill-rule="evenodd"/>
        <path fill="#b7b7b7" d="m363.09186 389.48593l18.48819 0l0 96.629944l-18.48819 0z" fill-rule="evenodd"/>
        <path stroke="#000000" stroke-width="1.0" stroke-linejoin="round" stroke-linecap="butt" d="m363.09186 389.48593l18.48819 0l0 96.629944l-18.48819 0z" fill-rule="evenodd"/>
        <path fill="#b7b7b7" d="m406.08792 389.48593l18.48819 0l0 96.629944l-18.48819 0z" fill-rule="evenodd"/>
        <path stroke="#000000" stroke-width="1.0" stroke-linejoin="round" stroke-linecap="butt" d="m406.08792 389.48593l18.48819 0l0 96.629944l-18.48819 0z" fill-rule="evenodd"/>
        <path fill="#666666" d="m346.20996 472.24185l2.314972 0l0 -73.51181l4.6299133 0l0 73.51181l2.314972 0l-4.6299133 4.6299133z" fill-rule="evenodd"/>
        <path stroke="#000000" stroke-width="1.0" stroke-linejoin="round" stroke-linecap="butt" d="m346.20996 472.24185l2.314972 0l0 -73.51181l4.6299133 0l0 73.51181l2.314972 0l-4.6299133 4.6299133z" fill-rule="evenodd"/>
        <path fill="#666666" d="m389.2034 472.24185l2.314972 0l0 -73.51181l4.6299133 0l0 73.51181l2.314972 0l-4.6299133 4.6299133z" fill-rule="evenodd"/>
        <path stroke="#000000" stroke-width="1.0" stroke-linejoin="round" stroke-linecap="butt" d="m389.2034 472.24185l2.314972 0l0 -73.51181l4.6299133 0l0 73.51181l2.314972 0l-4.6299133 4.6299133z" fill-rule="evenodd"/>
        <path fill="#666666" d="m432.20078 472.24185l2.314972 0l0 -73.51181l4.6299133 0l0 73.51181l2.314972 0l-4.6299133 4.6299133z" fill-rule="evenodd"/>
        <path stroke="#000000" stroke-width="1.0" stroke-linejoin="round" stroke-linecap="butt" d="m432.20078 472.24185l2.314972 0l0 -73.51181l4.6299133 0l0 73.51181l2.314972 0l-4.6299133 4.6299133z" fill-rule="evenodd"/>
        <path fill="#666666" d="m287.0525 403.35995l-2.314972 0l0 73.51181l-4.6299133 0l0 -73.51181l-2.3149414 0l4.6299133 -4.6299133z" fill-rule="evenodd"/>
        <path stroke="#000000" stroke-width="1.0" stroke-linejoin="round" stroke-linecap="butt" d="m287.0525 403.35995l-2.314972 0l0 73.51181l-4.6299133 0l0 -73.51181l-2.3149414 0l4.6299133 -4.6299133z" fill-rule="evenodd"/>
        <path id="Pan" fill="#cfe2f3" d="m133.74103 405.68018l110.17323 0l0 25.039368l-110.17323 0z" fill-rule="evenodd"/>
        <path stroke="#000000" stroke-width="1.0" stroke-linejoin="round" stroke-linecap="butt" d="m133.74103 405.68018l110.17323 0l0 25.039368l-110.17323 0z" fill-rule="evenodd"/>
        <path id="Pescado/Marisco congelado" fill="#cfe2f3" d="m18.085302 349.1841l25.128386 0l0 56.490753l90.52516 0l0 25.052551l-115.65354 0z" fill-rule="evenodd"/>
        <path stroke="#000000" stroke-width="1.0" stroke-linejoin="round" stroke-linecap="butt" d="m18.085302 349.1841l25.128386 0l0 56.490753l90.52516 0l0 25.052551l-115.65354 0z" fill-rule="evenodd"/>
        <path id="Pescadería" fill="#cfe2f3" d="m43.124672 211.48332l0 137.70079l-25.03937 0l0 -137.70079z" fill-rule="evenodd"/>
        <path stroke="#000000" stroke-width="1.0" stroke-linejoin="round" stroke-linecap="butt" d="m43.124672 211.48332l0 137.70079l-25.03937 0l0 -137.70079z" fill-rule="evenodd"/>
        <path id="Carnicería" fill="#cfe2f3" d="m183.84383 188.10536l-137.70078 0l0 -25.039368l137.70078 0z" fill-rule="evenodd"/>
        <path stroke="#000000" stroke-width="1.0" stroke-linejoin="round" stroke-linecap="butt" d="m183.84383 188.10536l-137.70078 0l0 -25.039368l137.70078 0z" fill-rule="evenodd"/>
        <path id="Carne envasada" fill="#cfe2f3" d="m338.5866 188.75053l-137.70078 0l0 -25.039368l137.70078 0z" fill-rule="evenodd"/>
        <path stroke="#000000" stroke-width="1.0" stroke-linejoin="round" stroke-linecap="butt" d="m338.5866 188.75053l-137.70078 0l0 -25.039368l137.70078 0z" fill-rule="evenodd"/>
        <path id="Queso" fill="#cfe2f3" d="m87.17454 357.39243l0 -119.433075l28.944885 0l0 119.433075z" fill-rule="evenodd"/>
        <path stroke="#000000" stroke-width="1.0" stroke-linejoin="round" stroke-linecap="butt" d="m87.17454 357.39243l0 -119.433075l28.944885 0l0 119.433075z" fill-rule="evenodd"/>
        <path id="Embutido"  fill="#cfe2f3" d="m144.03955 356.6093l0 -119.433075l19.59056 0l0 119.433075z" fill-rule="evenodd"/>
        <path stroke="#000000" stroke-width="1.0" stroke-linejoin="round" stroke-linecap="butt" d="m144.03955 356.6093l0 -119.433075l19.59056 0l0 119.433075z" fill-rule="evenodd"/>
        <path id="Comida preparada" fill="#cfe2f3" d="m194.28842 357.15262l0 -119.433075l13.8897705 0l0 119.433075z" fill-rule="evenodd"/>
        <path stroke="#000000" stroke-width="1.0" stroke-linejoin="round" stroke-linecap="butt" d="m194.28842 357.15262l0 -119.433075l13.8897705 0l0 119.433075z" fill-rule="evenodd"/>
        <path id="Verdura" fill="#cfe2f3" d="m208.17819 357.1916l0 -119.43306l13.8897705 0l0 119.43306z" fill-rule="evenodd"/>
        <path stroke="#000000" stroke-width="1.0" stroke-linejoin="round" stroke-linecap="butt" d="m208.17819 357.1916l0 -119.43306l13.8897705 0l0 119.43306z" fill-rule="evenodd"/>
        <path id="Fruta" fill="#cfe2f3" d="m260.64816 357.1723l0 -119.433075l13.8897705 0l0 119.433075z" fill-rule="evenodd"/>
        <path stroke="#000000" stroke-width="1.0" stroke-linejoin="round" stroke-linecap="butt" d="m260.64816 357.1723l0 -119.433075l13.8897705 0l0 119.433075z" fill-rule="evenodd"/>
        <path id="Tubérculo" fill="#cfe2f3" d="m274.53793 357.21127l0 -119.43306l13.8897705 0l0 119.43306z" fill-rule="evenodd"/>
        <path stroke="#000000" stroke-width="1.0" stroke-linejoin="round" stroke-linecap="butt" d="m274.53793 357.21127l0 -119.43306l13.8897705 0l0 119.43306z" fill-rule="evenodd"/>
        <path id="Sin glúten" fill="#cfe2f3" d="m370.30783 362.6361l0 -143.11812l13.8897705 0l0 143.11812z" fill-rule="evenodd"/>
        <path stroke="#000000" stroke-width="1.0" stroke-linejoin="round" stroke-linecap="butt" d="m370.30783 362.6361l0 -143.11812l13.8897705 0l0 143.11812z" fill-rule="evenodd"/>
        <path id="Higiene personal" fill="#cfe2f3" d="m384.1976 362.6828l0 -143.1181l13.8897705 0l0 143.1181z" fill-rule="evenodd"/>
        <path stroke="#000000" stroke-width="1.0" stroke-linejoin="round" stroke-linecap="butt" d="m384.1976 362.6828l0 -143.1181l13.8897705 0l0 143.1181z" fill-rule="evenodd"/>
        <path id="Lácteos" fill="#cfe2f3" d="m408.06955 18.485994l0 144.59843l-25.039368 0l0 -144.59843z" fill-rule="evenodd"/>
        <path stroke="#000000" stroke-width="1.0" stroke-linejoin="round" stroke-linecap="butt" d="m408.06955 18.485994l0 144.59843l-25.039368 0l0 -144.59843z" fill-rule="evenodd"/>
        <path id="Huevos" fill="#cfe2f3" d="m554.7152 43.52532l-146.20471 0l0 -25.039371l146.20471 0z" fill-rule="evenodd"/>
        <path stroke="#000000" stroke-width="1.0" stroke-linejoin="round" stroke-linecap="butt" d="m554.7152 43.52532l-146.20471 0l0 -25.039371l146.20471 0z" fill-rule="evenodd"/>
        <path id="Leche"  fill="#cfe2f3" d="m699.31366 43.524197l-144.59845 0l0 -25.03937l144.59845 0z" fill-rule="evenodd"/>
        <path stroke="#000000" stroke-width="1.0" stroke-linejoin="round" stroke-linecap="butt" d="m699.31366 43.524197l-144.59845 0l0 -25.03937l144.59845 0z" fill-rule="evenodd"/>
        <path id="Galletas" fill="#cfe2f3" d="m884.7782 159.64868l-24.411682 0l0 -116.01251l-161.32056 0l0 -25.152843l185.73224 0z" fill-rule="evenodd"/>
        <path stroke="#000000" stroke-width="1.0" stroke-linejoin="round" stroke-linecap="butt" d="m884.7782 159.64868l-24.411682 0l0 -116.01251l-161.32056 0l0 -25.152843l185.73224 0z" fill-rule="evenodd"/>
        <path id="Bio" fill="#cfe2f3" d="m444.3098 201.56372l0 -131.65353l13.88974 0l0 131.65353z" fill-rule="evenodd"/>
        <path stroke="#000000" stroke-width="1.0" stroke-linejoin="round" stroke-linecap="butt" d="m444.3098 201.56372l0 -131.65353l13.88974 0l0 131.65353z" fill-rule="evenodd"/>
        <path id="Alcohol" fill="#cfe2f3" d="m458.19955 201.60669l0 -131.65355l13.8897705 0l0 131.65355z" fill-rule="evenodd"/>
        <path stroke="#000000" stroke-width="1.0" stroke-linejoin="round" stroke-linecap="butt" d="m458.19955 201.60669l0 -131.65355l13.8897705 0l0 131.65355z" fill-rule="evenodd"/>
        <path id="Alcohol" fill="#cfe2f3" d="m505.27588 201.54272l0 -131.65355l13.8897705 0l0 131.65355z" fill-rule="evenodd"/>
        <path stroke="#000000" stroke-width="1.0" stroke-linejoin="round" stroke-linecap="butt" d="m505.27588 201.54272l0 -131.65355l13.8897705 0l0 131.65355z" fill-rule="evenodd"/>
        <path id="Snacks" fill="#cfe2f3" d="m519.16565 201.58568l0 -131.65353l13.8897705 0l0 131.65353z" fill-rule="evenodd"/>
        <path stroke="#000000" stroke-width="1.0" stroke-linejoin="round" stroke-linecap="butt" d="m519.16565 201.58568l0 -131.65353l13.8897705 0l0 131.65353z" fill-rule="evenodd"/>
        <path id="Bebidas" fill="#cfe2f3" d="m569.5753 201.52222l0 -131.65355l13.8897705 0l0 131.65355z" fill-rule="evenodd"/>
        <path stroke="#000000" stroke-width="1.0" stroke-linejoin="round" stroke-linecap="butt" d="m569.5753 201.52222l0 -131.65355l13.8897705 0l0 131.65355z" fill-rule="evenodd"/>
        <path id="Encurtidos" fill="#cfe2f3" d="m583.4651 201.56517l0 -131.65353l13.8897705 0l0 131.65353z" fill-rule="evenodd"/>
        <path stroke="#000000" stroke-width="1.0" stroke-linejoin="round" stroke-linecap="butt" d="m583.4651 201.56517l0 -131.65353l13.8897705 0l0 131.65353z" fill-rule="evenodd"/>
        <path id="Frutos secos" fill="#cfe2f3" d="m632.74457 201.52173l0 -131.65355l13.8897705 0l0 131.65355z" fill-rule="evenodd"/>
        <path stroke="#000000" stroke-width="1.0" stroke-linejoin="round" stroke-linecap="butt" d="m632.74457 201.52173l0 -131.65355l13.8897705 0l0 131.65355z" fill-rule="evenodd"/>
        <path id="Mermeladas" fill="#cfe2f3" d="m693.19037 201.50073l0 -131.65355l13.8897705 0l0 131.65355z" fill-rule="evenodd"/>
        <path stroke="#000000" stroke-width="1.0" stroke-linejoin="round" stroke-linecap="butt" d="m693.19037 201.50073l0 -131.65355l13.8897705 0l0 131.65355z" fill-rule="evenodd"/>
        <path id="Desayuno" fill="#cfe2f3" d="m755.86725 201.48021l0 -131.65353l13.8897705 0l0 131.65353z" fill-rule="evenodd"/>
        <path stroke="#000000" stroke-width="1.0" stroke-linejoin="round" stroke-linecap="butt" d="m755.86725 201.48021l0 -131.65353l13.8897705 0l0 131.65353z" fill-rule="evenodd"/>
        <path id="Café" fill="#cfe2f3" d="m769.757 201.52318l0 -131.65353l13.8897705 0l0 131.65353z" fill-rule="evenodd"/>
        <path stroke="#000000" stroke-width="1.0" stroke-linejoin="round" stroke-linecap="butt" d="m769.757 201.52318l0 -131.65353l13.8897705 0l0 131.65353z" fill-rule="evenodd"/>
        <path id="Mascotas" fill="#cfe2f3" d="m554.0045 365.68854l0 -131.65355l13.8897705 0l0 131.65355z" fill-rule="evenodd"/>
        <path stroke="#000000" stroke-width="1.0" stroke-linejoin="round" stroke-linecap="butt" d="m554.0045 365.68854l0 -131.65355l13.8897705 0l0 131.65355z" fill-rule="evenodd"/>
        <path id="Limpieza"  fill="#cfe2f3" d="m659.65466 365.64557l0 -131.65355l13.889709 0l0 131.65355z" fill-rule="evenodd"/>
        <path stroke="#000000" stroke-width="1.0" stroke-linejoin="round" stroke-linecap="butt" d="m659.65466 365.64557l0 -131.65355l13.889709 0l0 131.65355z" fill-rule="evenodd"/>
        <path id="Limpieza" fill="#cfe2f3" d="m673.5444 365.68854l0 -131.65355l13.8897705 0l0 131.65355z" fill-rule="evenodd"/>
        <path stroke="#000000" stroke-width="1.0" stroke-linejoin="round" stroke-linecap="butt" d="m673.5444 365.68854l0 -131.65355l13.8897705 0l0 131.65355z" fill-rule="evenodd"/>
        <path id="Limpieza" fill="#cfe2f3" d="m725.7764 366.09l0 -131.65353l13.8897705 0l0 131.65353z" fill-rule="evenodd"/>
        <path stroke="#000000" stroke-width="1.0" stroke-linejoin="round" stroke-linecap="butt" d="m725.7764 366.09l0 -131.65353l13.8897705 0l0 131.65353z" fill-rule="evenodd"/>
        <path id="Conservas" fill="#cfe2f3" d="m739.6662 366.13297l0 -131.65353l13.8897705 0l0 131.65353z" fill-rule="evenodd"/>
        <path stroke="#000000" stroke-width="1.0" stroke-linejoin="round" stroke-linecap="butt" d="m739.6662 366.13297l0 -131.65353l13.8897705 0l0 131.65353z" fill-rule="evenodd"/>
        <path id="Aceites" fill="#cfe2f3" d="m800.9726 301.16754l0 -66.67717l13.8897705 0l0 66.67717z" fill-rule="evenodd"/>
        <path stroke="#000000" stroke-width="1.0" stroke-linejoin="round" stroke-linecap="butt" d="m800.9726 301.16754l0 -66.67717l13.8897705 0l0 66.67717z" fill-rule="evenodd"/>
        <path id="Batidos" fill="#cfe2f3" d="m1015.50793 186.31534l-130.07874 0l0 -25.039368l130.07874 0z" fill-rule="evenodd"/>
        <path stroke="#000000" stroke-width="1.0" stroke-linejoin="round" stroke-linecap="butt" d="m1015.50793 186.31534l-130.07874 0l0 -25.039368l130.07874 0z" fill-rule="evenodd"/>
        <path id="Mariscos" fill="#cfe2f3" d="m868.973 365.66666l0 -131.65353l16.724426 0l0 131.65353z" fill-rule="evenodd"/>
        <path stroke="#000000" stroke-width="1.0" stroke-linejoin="round" stroke-linecap="butt" d="m868.973 365.66666l0 -131.65353l16.724426 0l0 131.65353z" fill-rule="evenodd"/>
        <path id="Bebés" fill="#cfe2f3" d="m505.98462 405.03485l221.63776 0l0 25.039368l-221.63776 0z" fill-rule="evenodd"/>
        <path stroke="#000000" stroke-width="1.0" stroke-linejoin="round" stroke-linecap="butt" d="m505.98462 405.03485l221.63776 0l0 25.039368l-221.63776 0z" fill-rule="evenodd"/>
        <path id="Salsas" fill="#cfe2f3" d="m933.6093 365.62415l0 -131.65355l13.8897705 0l0 131.65355z" fill-rule="evenodd"/>
        <path stroke="#000000" stroke-width="1.0" stroke-linejoin="round" stroke-linecap="butt" d="m933.6093 365.62415l0 -131.65355l13.8897705 0l0 131.65355z" fill-rule="evenodd"/>
        <path id="Legumbres" fill="#cfe2f3" d="m947.4991 365.66708l0 -131.65353l13.8897705 0l0 131.65353z" fill-rule="evenodd"/>
        <path stroke="#000000" stroke-width="1.0" stroke-linejoin="round" stroke-linecap="butt" d="m947.4991 365.66708l0 -131.65353l13.8897705 0l0 131.65353z" fill-rule="evenodd"/>
        <path id="Helados" fill="#cfe2f3" d="m1041.3179 429.8697l-130.07874 0l0 -25.039368l130.07874 0z" fill-rule="evenodd"/>
        <path stroke="#000000" stroke-width="1.0" stroke-linejoin="round" stroke-linecap="butt" d="m1041.3179 429.8697l-130.07874 0l0 -25.039368l130.07874 0z" fill-rule="evenodd"/>
        <path id="Congelados" fill="#cfe2f3" d="m1040.5472 274.23163l0 130.07874l-25.039307 0l0 -130.07874z" fill-rule="evenodd"/>
        <path stroke="#000000" stroke-width="1.0" stroke-linejoin="round" stroke-linecap="butt" d="m1040.5472 274.23163l0 130.07874l-25.039307 0l0 -130.07874z" fill-rule="evenodd"/>
        <path id="Harinas" fill="#cfe2f3" d="m800.99854 365.86234l0 -64.6929l13.8897705 0l0 64.6929z" fill-rule="evenodd"/>
        <path stroke="#000000" stroke-width="1.0" stroke-linejoin="round" stroke-linecap="butt" d="m800.99854 365.86234l0 -64.6929l13.8897705 0l0 64.6929z" fill-rule="evenodd"/>
        <path id="Conservas" fill="#cfe2f3" d="m786.1755 301.29745l0 -66.677155l13.8897705 0l0 66.677155z" fill-rule="evenodd"/>
        <path stroke="#000000" stroke-width="1.0" stroke-linejoin="round" stroke-linecap="butt" d="m786.1755 301.29745l0 -66.677155l13.8897705 0l0 66.677155z" fill-rule="evenodd"/>
        <path id="Tomate frito" fill="#cfe2f3" d="m786.2014 365.99228l0 -64.69293l13.8897705 0l0 64.69293z" fill-rule="evenodd"/>
        <path stroke="#000000" stroke-width="1.0" stroke-linejoin="round" stroke-linecap="butt" d="m786.2014 365.99228l0 -64.69293l13.8897705 0l0 64.69293z" fill-rule="evenodd"/>
        <path id="Higiene dental" fill="#cfe2f3" d="m539.41473 300.83157l0 -66.677155l13.8897705 0l0 66.677155z" fill-rule="evenodd"/>
        <path stroke="#000000" stroke-width="1.0" stroke-linejoin="round" stroke-linecap="butt" d="m539.41473 300.83157l0 -66.677155l13.8897705 0l0 66.677155z" fill-rule="evenodd"/>
        <path id="Higiene femenina" fill="#cfe2f3" d="m539.4407 365.5264l0 -64.69293l13.8897705 0l0 64.69293z" fill-rule="evenodd"/>
        <path stroke="#000000" stroke-width="1.0" stroke-linejoin="round" stroke-linecap="butt" d="m539.4407 365.5264l0 -64.69293l13.8897705 0l0 64.69293z" fill-rule="evenodd"/>
        <path id="Limpieza" fill="#cfe2f3" d="m613.41156 365.66754l0 -131.65355l13.8897705 0l0 131.65355z" fill-rule="evenodd"/>
        <path stroke="#000000" stroke-width="1.0" stroke-linejoin="round" stroke-linecap="butt" d="m613.41156 365.66754l0 -131.65355l13.8897705 0l0 131.65355z" fill-rule="evenodd"/>
        <path id="Mascotas" fill="#cfe2f3" d="m599.3998 365.66754l0 -131.65355l13.8897705 0l0 131.65355z" fill-rule="evenodd"/>
        <path stroke="#000000" stroke-width="1.0" stroke-linejoin="round" stroke-linecap="butt" d="m599.3998 365.66754l0 -131.65355l13.8897705 0l0 131.65355z" fill-rule="evenodd"/>
        <path id="Parafarmacia" fill="#cfe2f3" d="m500.31433 365.66754l0 -131.65355l13.8897705 0l0 131.65355z" fill-rule="evenodd"/>
        <path stroke="#000000" stroke-width="1.0" stroke-linejoin="round" stroke-linecap="butt" d="m500.31433 365.66754l0 -131.65355l13.8897705 0l0 131.65355z" fill-rule="evenodd"/>
        <path id="Higiene personal" fill="#cfe2f3" d="m486.30252 365.66754l0 -131.65355l13.8897705 0l0 131.65355z" fill-rule="evenodd"/>
        <path stroke="#000000" stroke-width="1.0" stroke-linejoin="round" stroke-linecap="butt" d="m486.30252 365.66754l0 -131.65355l13.8897705 0l0 131.65355z" fill-rule="evenodd"/>
        <path id="Pasta" fill="#cfe2f3" d="m854.1787 300.8267l0 -66.67717l13.8897705 0l0 66.67717z" fill-rule="evenodd"/>
        <path stroke="#000000" stroke-width="1.0" stroke-linejoin="round" stroke-linecap="butt" d="m854.1787 300.8267l0 -66.67717l13.8897705 0l0 66.67717z" fill-rule="evenodd"/>
        <path id="Arroz" fill="#cfe2f3" d="m854.20465 365.52148l0 -64.6929l13.8897705 0l0 64.6929z" fill-rule="evenodd"/>
        <path stroke="#000000" stroke-width="1.0" stroke-linejoin="round" stroke-linecap="butt" d="m854.20465 365.52148l0 -64.6929l13.8897705 0l0 64.6929z" fill-rule="evenodd"/>
        <path id="Higiene personal" fill="#cfe2f3" d="m448.10123 365.7542l0 -131.65353l13.8897705 0l0 131.65353z" fill-rule="evenodd"/>
        <path stroke="#000000" stroke-width="1.0" stroke-linejoin="round" stroke-linecap="butt" d="m448.10123 365.7542l0 -131.65353l13.8897705 0l0 131.65353z" fill-rule="evenodd"/>
        <path id="Cosmeticos" fill="#cfe2f3" d="m434.08942 365.7542l0 -131.65353l13.8897705 0l0 131.65353z" fill-rule="evenodd"/>
        <path stroke="#000000" stroke-width="1.0" stroke-linejoin="round" stroke-linecap="butt" d="m434.08942 365.7542l0 -131.65353l13.8897705 0l0 131.65353z" fill-rule="evenodd"/>
        <path id="Comida instantánea" fill="#cfe2f3" d="m728.28735 404.93823l182.70862 0l0 25.039368l-182.70862 0z" fill-rule="evenodd"/>
        <path stroke="#000000" stroke-width="1.0" stroke-linejoin="round" stroke-linecap="butt" d="m728.28735 404.93823l182.70862 0l0 25.039368l-182.70862 0z" fill-rule="evenodd"/>
        <path id="Cacao" fill="#cfe2f3" d="m808.93884 201.5852l0 -131.65355l13.8897705 0l0 131.65355z" fill-rule="evenodd"/>
        <path stroke="#000000" stroke-width="1.0" stroke-linejoin="round" stroke-linecap="butt" d="m808.93884 201.5852l0 -131.65355l13.8897705 0l0 131.65355z" fill-rule="evenodd"/>
        <path id="Chocolates" fill="#cfe2f3" d="m822.8286 201.62816l0 -131.65353l13.8897705 0l0 131.65353z" fill-rule="evenodd"/>
        <path stroke="#000000" stroke-width="1.0" stroke-linejoin="round" stroke-linecap="butt" d="m822.8286 201.62816l0 -131.65353l13.8897705 0l0 131.65353z" fill-rule="evenodd"/>
        <path id="Cacao" fill="#cfe2f3" d="m647.4525 136.64392l0 -66.67716l13.8897705 0l0 66.67716z" fill-rule="evenodd"/>
        <path stroke="#000000" stroke-width="1.0" stroke-linejoin="round" stroke-linecap="butt" d="m647.4525 136.64392l0 -66.67716l13.8897705 0l0 66.67716z" fill-rule="evenodd"/>
        <path id="Repostería casera" fill="#cfe2f3" d="m647.47845 201.33873l0 -64.69292l13.8897705 0l0 64.69292z" fill-rule="evenodd"/>
        <path stroke="#000000" stroke-width="1.0" stroke-linejoin="round" stroke-linecap="butt" d="m647.47845 201.33873l0 -64.69292l13.8897705 0l0 64.69292z" fill-rule="evenodd"/>
        <path id="Desayuno" fill="#cfe2f3" d="m707.42883 136.64523l0 -66.67716l13.8897705 0l0 66.67716z" fill-rule="evenodd"/>
        <path stroke="#000000" stroke-width="1.0" stroke-linejoin="round" stroke-linecap="butt" d="m707.42883 136.64523l0 -66.67716l13.8897705 0l0 66.67716z" fill-rule="evenodd"/>
        <path id="Azúcar/Edulcorantes" fill="#cfe2f3" d="m707.4548 201.34004l0 -64.69292l13.8897705 0l0 64.69292z" fill-rule="evenodd"/>
        <path stroke="#000000" stroke-width="1.0" stroke-linejoin="round" stroke-linecap="butt" d="m707.4548 201.34004l0 -64.69292l13.8897705 0l0 64.69292z" fill-rule="evenodd"/>
    </g>
</svg>